<?xml version="1.0" encoding="UTF-8"?>
<svg width="500" height="480" viewBox="0 0 500 480" fill="none" xmlns="http://www.w3.org/2000/svg">
  <defs>
    <linearGradient id="paint0_linear_50_445" x1="331.574" y1="235.357" x2="378.448" y2="235.357" gradientUnits="userSpaceOnUse">
      <stop stop-color="#E17B47" stop-opacity="0.2"/>
      <stop offset="1" stop-color="#E17B47" stop-opacity="0.1"/>
    </linearGradient>
    <linearGradient id="paint1_linear_50_445" x1="375.753" y1="233" x2="380.883" y2="233" gradientUnits="userSpaceOnUse">
      <stop stop-color="#E17B47" stop-opacity="0.2"/>
      <stop offset="1" stop-color="#E17B47" stop-opacity="0.1"/>
    </linearGradient>
    <linearGradient id="paint2_linear_50_445" x1="428.77" y1="95.9595" x2="445.373" y2="191.102" gradientUnits="userSpaceOnUse">
      <stop stop-color="#E17B47" stop-opacity="0.2"/>
      <stop offset="1" stop-color="#E17B47" stop-opacity="0.1"/>
    </linearGradient>
    <linearGradient id="paint4_linear_50_445" x1="417.488" y1="176.228" x2="432.466" y2="187.389" gradientUnits="userSpaceOnUse">
      <stop stop-color="#E17B47" stop-opacity="0.2"/>
      <stop offset="1" stop-color="#E17B47" stop-opacity="0.1"/>
    </linearGradient>
    <clipPath id="clip0_50_445">
      <rect width="10.2" height="10.2" fill="white" transform="translate(388.202 156.21)"/>
    </clipPath>
  </defs>
  <rect width="300" height="480" rx="2" fill="#2E2A27"/>
  <rect x="35" y="35" width="230" height="134" rx="2" fill="#F0EBE6" fill-opacity="0.17"/>
  <rect opacity="0.1" x="35" y="194" width="230" height="27" rx="2" fill="#F0EBE6"/>
  <rect opacity="0.1" x="35" y="246" width="137" height="199" rx="2" fill="#F0EBE6"/>
  <rect opacity="0.08" x="187" y="246" width="78" height="64" rx="2" fill="#F0EBE6"/>
  <rect opacity="0.2" x="187" y="322" width="78" height="55" rx="2" fill="#F0EBE6"/>
  <rect opacity="0.2" x="187" y="389" width="78" height="56" rx="2" fill="#F0EBE6" fill-opacity="0.65"/>
  <rect x="330" y="310" width="170" height="170" rx="2" fill="#2E2A27"/>
  <rect x="362" y="365.831" width="80.7651" height="80.7651" rx="2" transform="rotate(-13.9128 362 365.831)" fill="#E17B47"/>
  <path d="M412.572 402.039C411.235 402.37 409.822 402.156 408.643 401.445C407.464 400.734 406.615 399.584 406.284 398.247C405.818 396.366 406.435 394.466 407.718 393.239L421.691 379.757L416.388 398.152C415.956 400.006 414.538 401.552 412.572 402.039ZM407.162 380.2C410.203 379.447 413.25 379.583 416.061 380.349L413.037 383.256C411.434 383.047 409.675 383.144 407.995 383.56C404.43 384.443 401.363 386.705 399.467 389.85C397.571 392.995 397.002 396.764 397.884 400.328C398.804 404.041 401.131 407.03 404.167 408.846L404.183 408.842C405.001 409.334 405.263 410.393 404.77 411.21C404.277 412.028 403.202 412.294 402.389 411.818C398.595 409.531 395.673 405.797 394.525 401.16C393.421 396.705 394.132 391.994 396.502 388.063C398.873 384.132 402.707 381.304 407.162 380.2ZM428.123 392.838C429.271 397.474 428.43 402.14 426.143 405.934C425.646 406.735 424.587 406.997 423.77 406.504C422.952 406.011 422.69 404.953 423.183 404.135C425.016 401.096 425.683 397.382 424.763 393.67C424.347 391.99 423.612 390.389 422.649 389.023L423.808 384.992C425.826 387.166 427.365 389.78 428.123 392.838Z" fill="#F0EBE6"/>
  <path d="M377.795 371.295C358.482 349.772 331.574 292.451 378.448 235.357" stroke="url(#paint0_linear_50_445)" stroke-linecap="round" stroke-linejoin="round" stroke-dasharray="2 2"/>
  <path d="M375.753 233.513L380.883 233V237.617" stroke="url(#paint1_linear_50_445)" stroke-linecap="round" stroke-linejoin="round" stroke-dasharray="2 2"/>
  <rect x="330" width="170" height="280" rx="2" fill="#2E2A27"/>
  <rect x="384" y="213" width="69" height="19.5283" rx="9.76415" fill="#36A269"/>
  <path d="M399.37 219.509V223.177C399.37 223.948 398.838 224.502 397.972 224.502C397.109 224.502 396.574 223.948 396.574 223.177V219.509H395.717V223.246C395.717 224.439 396.61 225.285 397.972 225.285C399.334 225.285 400.23 224.439 400.23 223.246V219.509H399.37Z" fill="#F0EBE6"/>
  <path d="M401.41 226.788H402.239V224.527H402.289C402.439 224.799 402.744 225.274 403.521 225.274C404.553 225.274 405.302 224.447 405.302 223.068C405.302 221.687 404.541 220.874 403.512 220.874C402.722 220.874 402.436 221.357 402.289 221.62H402.22V220.93H401.41V226.788ZM402.222 223.06C402.222 222.17 402.611 221.579 403.335 221.579C404.087 221.579 404.464 222.214 404.464 223.06C404.464 223.914 404.075 224.566 403.335 224.566C402.622 224.566 402.222 223.956 402.222 223.06Z" fill="#F0EBE6"/>
  <path d="M407.826 225.274C408.602 225.274 408.908 224.799 409.057 224.527H409.127V225.19H409.937V219.509H409.107V221.62H409.057C408.908 221.357 408.625 220.874 407.831 220.874C406.802 220.874 406.045 221.687 406.045 223.068C406.045 224.447 406.791 225.274 407.826 225.274ZM408.009 224.566C407.268 224.566 406.883 223.914 406.883 223.06C406.883 222.214 407.26 221.579 408.009 221.579C408.733 221.579 409.121 222.17 409.121 223.06C409.121 223.956 408.725 224.566 408.009 224.566Z" fill="#F0EBE6"/>
  <path d="M412.36 225.285C413.065 225.285 413.462 224.927 413.62 224.608H413.653V225.19H414.463V222.361C414.463 221.121 413.487 220.874 412.81 220.874C412.039 220.874 411.329 221.185 411.051 221.962L411.831 222.139C411.953 221.837 412.263 221.545 412.821 221.545C413.356 221.545 413.631 221.826 413.631 222.308V222.328C413.631 222.63 413.32 222.624 412.555 222.713C411.747 222.808 410.921 223.018 410.921 223.986C410.921 224.824 411.55 225.285 412.36 225.285ZM412.541 224.619C412.072 224.619 411.734 224.408 411.734 223.998C411.734 223.554 412.127 223.396 412.607 223.332C412.876 223.296 413.514 223.224 413.634 223.104V223.654C413.634 224.158 413.231 224.619 412.541 224.619Z" fill="#F0EBE6"/>
  <path d="M417.557 220.93H416.683V219.909H415.853V220.93H415.229V221.595H415.853V224.111C415.851 224.885 416.442 225.26 417.096 225.246C417.36 225.243 417.537 225.193 417.634 225.157L417.485 224.472C417.429 224.483 417.326 224.508 417.193 224.508C416.924 224.508 416.683 224.419 416.683 223.939V221.595H417.557V220.93Z" fill="#F0EBE6"/>
  <path d="M420.265 225.276C421.194 225.276 421.851 224.819 422.04 224.125L421.255 223.984C421.105 224.386 420.745 224.591 420.273 224.591C419.563 224.591 419.086 224.131 419.064 223.31H422.093V223.016C422.093 221.476 421.172 220.874 420.206 220.874C419.019 220.874 418.237 221.778 418.237 223.088C418.237 224.411 419.008 225.276 420.265 225.276ZM419.066 222.688C419.1 222.084 419.538 221.559 420.212 221.559C420.856 221.559 421.277 222.036 421.28 222.688H419.066Z" fill="#F0EBE6"/>
  <path d="M429.732 219.509H428.883V223.681H428.83L425.94 219.509H425.147V225.19H426.004V221.024H426.057L428.944 225.19H429.732V219.509Z" fill="#F0EBE6"/>
  <path d="M432.71 225.276C433.912 225.276 434.697 224.397 434.697 223.079C434.697 221.753 433.912 220.874 432.71 220.874C431.509 220.874 430.724 221.753 430.724 223.079C430.724 224.397 431.509 225.276 432.71 225.276ZM432.713 224.58C431.928 224.58 431.562 223.895 431.562 223.077C431.562 222.261 431.928 221.568 432.713 221.568C433.493 221.568 433.859 222.261 433.859 223.077C433.859 223.895 433.493 224.58 432.713 224.58Z" fill="#F0EBE6"/>
  <path d="M436.416 225.19H437.26L438.125 222.114H438.189L439.054 225.19H439.9L441.151 220.93H440.294L439.465 224.045H439.423L438.591 220.93H437.734L436.896 224.059H436.855L436.02 220.93H435.163L436.416 225.19Z" fill="#F0EBE6"/>
  <path d="M429.313 209C445.373 191.102 467.749 143.437 428.77 95.9595" stroke="url(#paint2_linear_50_445)" stroke-linecap="round" stroke-linejoin="round" stroke-dasharray="2 2"/>
  <path d="M431.011 94.4266L426.746 94V97.8392" stroke="#E8C9BC" stroke-linecap="round" stroke-linejoin="round" stroke-dasharray="2 2"/>
  <path d="M425.919 209.552C429.35 203.094 432.466 187.389 417.488 176.228" stroke="url(#paint4_linear_50_445)" stroke-width="0.7" stroke-linecap="round" stroke-linejoin="round" stroke-dasharray="2 2"/>
  <rect x="348" y="72" width="76" height="19" rx="1" fill="#F0EBE6" fill-opacity="0.15"/>
  <rect x="348.1" y="72.1" width="75.8" height="18.8" rx="0.9" stroke="#F0EBE6" stroke-opacity="0.19" stroke-width="0.2"/>
  <circle cx="359.5" cy="81.5" r="6.5" fill="#E17B47"/>
  <path d="M357.167 79.75H361.833V82.6666H357.167V79.75ZM361.833 83.25C361.988 83.25 362.136 83.1885 362.246 83.0791C362.355 82.9697 362.417 82.8213 362.417 82.6666V79.75C362.417 79.4262 362.154 79.1666 361.833 79.1666H357.167C356.843 79.1666 356.583 79.4262 356.583 79.75V82.6666C356.583 82.8213 356.645 82.9697 356.754 83.0791C356.864 83.1885 357.012 83.25 357.167 83.25H356V83.8333H363V83.25H361.833Z" fill="#F0EBE6"/>
  <rect x="373" y="148.4" width="34" height="34" rx="1" transform="rotate(-12.5713 373 148.4)" fill="#E17B47"/>
  <circle cx="393.293" cy="161.293" r="10" transform="rotate(-12.5713 393.293 161.293)" fill="#F0EBE6"/>
  <g clip-path="url(#clip0_50_445)">
    <path d="M398.281 159.94L396.256 158.654C396.106 158.558 396.015 158.621 396.054 158.796L396.433 160.496L394.539 160.919C394.355 160.293 393.738 159.901 393.094 160L392.675 158.119L394.375 157.74C394.55 157.701 394.569 157.593 394.418 157.497L392.393 156.21C392.242 156.115 392.043 156.159 391.948 156.309L390.661 158.335C390.565 158.485 390.629 158.576 390.803 158.537L392.504 158.158L392.923 160.037C392.298 160.222 391.905 160.838 392.005 161.483L390.111 161.905L389.732 160.206C389.693 160.031 389.584 160.012 389.489 160.163L388.202 162.188C388.106 162.338 388.151 162.538 388.301 162.633L390.326 163.92C390.477 164.015 390.567 163.952 390.528 163.778L390.149 162.076L392.04 161.654C392.225 162.279 392.842 162.672 393.486 162.572L393.908 164.464L392.208 164.843C392.034 164.882 392.015 164.991 392.165 165.086L394.191 166.373C394.341 166.468 394.54 166.424 394.636 166.274L395.923 164.248C396.018 164.098 395.955 164.007 395.78 164.046L394.082 164.425L393.661 162.536C394.286 162.351 394.678 161.735 394.579 161.091L396.471 160.669L396.85 162.369C396.889 162.544 396.997 162.563 397.093 162.412L398.38 160.387C398.476 160.236 398.432 160.036 398.281 159.94Z" fill="#E17B47"/>
  </g>
</svg>
